<svg id="visual" viewBox="0 0 900 600" width="900" height="600" xmlns="http://www.w3.org/2000/svg" xmlns:xlink="http://www.w3.org/1999/xlink" version="1.1"><path d="M0 241L30 211C60 181 120 121 180 91C240 61 300 61 360 129C420 197 480 333 540 389C600 445 660 421 720 391C780 361 840 325 870 307L900 289L900 0L870 0C840 0 780 0 720 0C660 0 600 0 540 0C480 0 420 0 360 0C300 0 240 0 180 0C120 0 60 0 30 0L0 0Z" fill="#212644"></path><path d="M0 319L30 305C60 291 120 263 180 230C240 197 300 159 360 216C420 273 480 425 540 500C600 575 660 573 720 537C780 501 840 431 870 396L900 361L900 287L870 305C840 323 780 359 720 389C660 419 600 443 540 387C480 331 420 195 360 127C300 59 240 59 180 89C120 119 60 179 30 209L0 239Z" fill="#2c325c"></path><path d="M0 601L30 601C60 601 120 601 180 601C240 601 300 601 360 601C420 601 480 601 540 601C600 601 660 601 720 601C780 601 840 601 870 601L900 601L900 359L870 394C840 429 780 499 720 535C660 571 600 573 540 498C480 423 420 271 360 214C300 157 240 195 180 228C120 261 60 289 30 303L0 317Z" fill="#505581"></path></svg>